[Header]
FileType HTR
DataType HTRS
FileVersion 1
NumSegments 22
NumFrames 5
DataFrameRate 24
EulerRotationOrder ZYX
CalibrationUnits mm
RotationUnits Degrees
GlobalAxisofGravity Y
BoneLengthAxis Y
ScaleFactor 1.0
[SegmentNames&Hierarchy]
reference	GLOBAL
Hips	reference
Spine	Hips
Spine1	Spine
Neck	Spine1
Head	Neck
LeftShoulder	Spine1
LeftArm	LeftShoulder
LeftForeArm	LeftArm
LeftHand	LeftForeArm
RightShoulder	Spine1
RightArm	RightShoulder
RightForeArm	RightArm
RightHand	RightForeArm
LeftUpLeg	Hips
LeftLeg	LeftUpLeg
LeftFoot	LeftLeg
LeftToeBase	LeftFoot
RightUpLeg	Hips
RightLeg	RightUpLeg
RightFoot	RightLeg
RightToeBase	RightFoot
[BasePosition]
reference	0	0	0	0	0	0	1
Hips	0	0	0	0	0	0	1
Spine	0	0	0	-0	-90	0	1
Spine1	0	0	0	0	0	0	1
Neck	0	0	0	82.64767223	-82.64767223	-90	1
Head	0	0	0	-0	-90	0	1
LeftShoulder	0	0	0	0	0	0	1
LeftArm	0	0	0	0	0	0	1
LeftForeArm	0	0	0	0	0	0	1
LeftHand	0	0	0	0	0	0	1
RightShoulder	0	0	0	0	-0	180	1
RightArm	0	0	0	0	-0	180	1
RightForeArm	0	0	0	0	-0	180	1
RightHand	0	0	0	0	-0	180	1
LeftUpLeg	0	0	0	-0	90	0	1
LeftLeg	0	0	0	-0	90	0	1
LeftFoot	0	0	0	-23.42853957	23.42853957	-90	1
LeftToeBase	0	0	0	0	-0	-90	1
RightUpLeg	0	0	0	-0	90	0	1
RightLeg	0	0	0	-0	90	0	1
RightFoot	0	0	0	-23.42853957	23.42853957	-90	1
RightToeBase	0	0	0	0	-0	-90	1
[reference]
30	0	0	0	0	-0	0	1.0
31	0	0	0	0	-0	0	1.0
32	0	0	0	0	-0	0	1.0
33	0	0	0	0	-0	0	1.0
34	0	0	0	0	-0	0	1.0
[Hips]
30	5.201609612	0.03909999877	7.90871048	3.369760513	0.6538251638	-67.79750061	1.0
31	5.201609612	0.03909999877	7.90871048	3.800282717	0.1414373219	-66.87670898	1.0
32	5.201609612	0.03909999877	7.90871048	4.169057846	-0.2080601156	-66.14961243	1.0
33	5.201609612	0.03909999877	7.90871048	4.357374191	-0.174543038	-65.64083862	1.0
34	5.201609612	0.03909999877	7.90871048	4.785467148	-0.1286513805	-65.11436462	1.0
[Spine]
30	0	0	0.7457100153	283.475769	90.85932922	289.3742676	1.0
31	0	0	0.7457100153	293.6608582	91.38650513	299.477417	1.0
32	0	0	0.7457100153	299.9806519	91.77284241	305.5649109	1.0
33	0	0	0.7457100153	307.905365	91.82852173	313.2841187	1.0
34	0	0	0.7457100153	328.649231	91.96887207	334.1535645	1.0
[Spine1]
30	0	0	2.140589952	6.61725235	-1.260529518	0.2042834014	1.0
31	0	0	2.140589952	6.712504387	-0.977635622	0.3539657891	1.0
32	0	0	2.140589952	6.826228619	-0.7745524049	0.4529800713	1.0
33	0	0	2.140589952	6.948358059	-0.9481551051	0.406370014	1.0
34	0	0	2.140589952	6.747883797	-1.667095184	0.2205859572	1.0
[Neck]
30	0	0	2.32246995	89.80918121	82.0276947	105.2577286	1.0
31	0	0	2.32246995	90.69194031	82.85153198	107.2856293	1.0
32	0	0	2.32246995	91.3607254	83.40823364	109.6622543	1.0
33	0	0	2.32246995	86.05230713	83.6309967	105.8522491	1.0
34	0	0	2.32246995	81.57447815	83.6873703	101.9852371	1.0
[Head]
30	0	-0.1818799973	1.409579992	-20.50341034	92.60496521	-17.21012115	1.0
31	0	-0.1818799973	1.409579992	-1.066569328	92.79386902	2.505254507	1.0
32	0	-0.1818799973	1.409579992	15.55072975	92.32189941	19.18517113	1.0
33	0	-0.1818799973	1.409579992	15.09632874	92.66121674	18.14234924	1.0
34	0	-0.1818799973	1.409579992	12.84641647	92.89193726	15.94037819	1.0
[LeftShoulder]
30	0.3668199778	0.02662999928	1.946700096	-12.15890884	0.3247754276	-13.09587097	1.0
31	0.3668199778	0.02662999928	1.946700096	-12.16262341	-0.2578121722	-13.11289597	1.0
32	0.3668199778	0.02662999928	1.946700096	-11.39593697	-0.648132205	-13.33060741	1.0
33	0.3668199778	0.02662999928	1.946700096	-10.90567303	-0.8911367655	-13.49498272	1.0
34	0.3668199778	0.02662999928	1.946700096	-10.46939373	-1.685166597	-13.55232811	1.0
[LeftArm]
30	1.140689969	0	0	76.64651489	60.72724533	52.87353516	1.0
31	1.140689969	0	0	74.66902161	58.76159286	53.91762543	1.0
32	1.140689969	0	0	72.37281036	57.34374237	54.46340942	1.0
33	1.140689969	0	0	71.74398041	56.65621567	55.21730423	1.0
34	1.140689969	0	0	73.28562927	56.04232407	58.05224991	1.0
[LeftForeArm]
30	2.749800205	0	0	-9.506828308	4.751169205	-3.774545908	1.0
31	2.749800205	0	0	-8.529840469	5.569868088	-3.154242516	1.0
32	2.749800205	0	0	-8.12460041	6.326403618	-3.4626894	1.0
33	2.749800205	0	0	-7.896560669	6.775953293	-4.219665527	1.0
34	2.749800205	0	0	-6.590892315	8.201686859	-5.525933743	1.0
[LeftHand]
30	2.295179844	0	0	-9.347298622	-4.488951683	-0.0488572754	1.0
31	2.295179844	0	0	-8.371491432	-2.731372356	-0.308157742	1.0
32	2.295179844	0	0	-7.938944817	0.3873460293	-1.748408556	1.0
33	2.295179844	0	0	-7.738783836	3.647021294	-2.892753839	1.0
34	2.295179844	0	0	-6.444999218	8.928538322	-3.231068611	1.0
[RightShoulder]
30	-0.3601199985	0.02662999928	1.946700096	-7.592757225	5.282761574	-176.4677124	1.0
31	-0.3601199985	0.02662999928	1.946700096	-7.838590622	5.542356968	-176.669281	1.0
32	-0.3601199985	0.02662999928	1.946700096	-7.586516857	5.6097188	-176.7615051	1.0
33	-0.3601199985	0.02662999928	1.946700096	-7.514679432	5.711190224	-176.880249	1.0
34	-0.3601199985	0.02662999928	1.946700096	-7.658353806	6.443431854	-177.066803	1.0
[RightArm]
30	-1.140689969	0	0	-7.20088768	-80.4072876	-100.2424469	1.0
31	-1.140689969	0	0	-5.003587723	-79.10574341	-101.8622665	1.0
32	-1.140689969	0	0	-2.19394207	-77.67611694	-104.7653198	1.0
33	-1.140689969	0	0	-0.3838662803	-76.80974579	-106.9925079	1.0
34	-1.140689969	0	0	3.110674381	-75.69772339	-110.9521408	1.0
[RightForeArm]
30	-2.749800205	0	0	8.534809113	6.302602768	-150.8588257	1.0
31	-2.749800205	0	0	10.06016922	6.077005386	-145.390213	1.0
32	-2.749800205	0	0	10.80385685	6.073043823	-140.2531128	1.0
33	-2.749800205	0	0	11.05180836	5.586519718	-137.1791382	1.0
34	-2.749800205	0	0	12.10701656	3.740463972	-132.7140198	1.0
[RightHand]
30	-2.295179844	0	0	8.089881897	9.568040848	-165.7946472	1.0
31	-2.295179844	0	0	9.412620544	9.452165604	-164.9476318	1.0
32	-2.295179844	0	0	9.818945885	8.8542099	-164.4383392	1.0
33	-2.295179844	0	0	10.0433836	8.480018616	-164.1396484	1.0
34	-2.295179844	0	0	11.47284126	7.071873188	-163.8009644	1.0
[LeftUpLeg]
30	0.9094099998	0	0	168.4600067	-93.68361664	-158.9007874	1.0
31	0.9094099998	0	0	188.5436707	-94.05825043	-179.4515839	1.0
32	0.9094099998	0	0	193.961731	-94.04917145	-185.8358459	1.0
33	0.9094099998	0	0	193.6183472	-93.56613922	-186.4512634	1.0
34	0.9094099998	0	0	222.034668	-94.51314545	-216.6818695	1.0
[LeftLeg]
30	0	0	-4.498080254	76.89219666	-79.19984436	-63.89199066	1.0
31	0	0	-4.498080254	77.20197296	-79.06024933	-67.7432251	1.0
32	0	0	-4.498080254	76.52495575	-77.5660553	-69.26561737	1.0
33	0	0	-4.498080254	76.38842773	-75.7303772	-69.80187225	1.0
34	0	0	-4.498080254	75.03735352	-77.28086853	-69.44530487	1.0
[LeftFoot]
30	0	0	-3.729400158	-66.73247528	-10.52202702	108.9648819	1.0
31	0	0	-3.729400158	-67.32724762	-11.61369324	109.9607086	1.0
32	0	0	-3.729400158	-67.36979675	-12.32523632	111.3344269	1.0
33	0	0	-3.729400158	-67.16705322	-12.35409641	112.39785	1.0
34	0	0	-3.729400158	-65.61344147	-12.78772736	111.8959045	1.0
[LeftToeBase]
30	0	-1.364109993	-0.5911099911	-1.999999995e-006	0	-1.999999995e-006	1.0
31	0	-1.364109993	-0.5911099911	-1.999999995e-006	0	-1.999999995e-006	1.0
32	0	-1.364109993	-0.5911099911	-1.999999995e-006	0	-1.999999995e-006	1.0
33	0	-1.364109993	-0.5911099911	-1.999999995e-006	0	-1.999999995e-006	1.0
34	0	-1.364109993	-0.5911099911	-1.999999995e-006	0	-1.999999995e-006	1.0
[RightUpLeg]
30	-0.9094099998	0	0	110.8675079	-76.19352722	-135.5693817	1.0
31	-0.9094099998	0	0	104.1661682	-75.662323	-128.2080383	1.0
32	-0.9094099998	0	0	98.11293793	-76.37324524	-121.4660873	1.0
33	-0.9094099998	0	0	96.54782867	-76.79808807	-119.1768494	1.0
34	-0.9094099998	0	0	95.27813721	-77.46125793	-117.9382019	1.0
[RightLeg]
30	0	0	-4.498080254	219.8103943	-98.29010773	-197.5335083	1.0
31	0	0	-4.498080254	228.5121765	-96.90560913	-211.5924835	1.0
32	0	0	-4.498080254	248.6407166	-95.543396	-236.5299683	1.0
33	0	0	-4.498080254	257.2797852	-96.82002258	-249.1455994	1.0
34	0	0	-4.498080254	252.1893311	-96.75926208	-244.4089966	1.0
[RightFoot]
30	0	0	-3.729400158	-47.19702148	-19.11467552	96.03775024	1.0
31	0	0	-3.729400158	-45.0266037	-19.20941734	95.51519775	1.0
32	0	0	-3.729400158	-42.15628433	-18.78376007	96.03069305	1.0
33	0	0	-3.729400158	-42.34291458	-23.93335724	103.0888367	1.0
34	0	0	-3.729400158	-44.18951797	-25.03786278	101.2224884	1.0
[RightToeBase]
30	0	-1.364109993	-0.5911099911	-9.999999975e-007	0	0	1.0
31	0	-1.364109993	-0.5911099911	-9.999999975e-007	0	0	1.0
32	0	-1.364109993	-0.5911099911	-9.999999975e-007	0	0	1.0
33	0	-1.364109993	-0.5911099911	-9.999999975e-007	0	0	1.0
34	0	-1.364109993	-0.5911099911	-9.999999975e-007	0	0	1.0
[EndOfFile]
